<?xml version="1.0" encoding="UTF-8"?>
<!DOCTYPE svg PUBLIC "-//W3C//DTD SVG 1.1//EN" "http://www.w3.org/Graphics/SVG/1.1/DTD/svg11.dtd">
<svg version="1.1" xmlns="http://www.w3.org/2000/svg" xmlns:xlink="http://www.w3.org/1999/xlink" x="0" y="0" width="47" height="47" viewBox="0, 0, 47, 47">
  <g id="Layer_1">
    <path d="M23.5,0.2 C36.368,0.2 46.8,10.632 46.8,23.5 C46.8,36.368 36.368,46.8 23.5,46.8 C10.632,46.8 0.2,36.368 0.2,23.5 C0.2,10.632 10.632,0.2 23.5,0.2 z M23.5,1.2 C11.184,1.2 1.2,11.184 1.2,23.5 C1.2,35.816 11.184,45.8 23.5,45.8 C35.816,45.8 45.8,35.816 45.8,23.5 C45.8,11.184 35.816,1.2 23.5,1.2 z" fill="#FFFFFF"/>
    <path d="M11.134,17.317 L23.5,29.683 M23.5,29.683 L35.866,17.317" fill-opacity="0" stroke="#FFFFFF" stroke-width="1"/>
  </g>
</svg>
