<?xml version="1.0" encoding="UTF-8"?>
<!DOCTYPE svg PUBLIC "-//W3C//DTD SVG 1.1//EN" "http://www.w3.org/Graphics/SVG/1.1/DTD/svg11.dtd">
<svg version="1.1" xmlns="http://www.w3.org/2000/svg" xmlns:xlink="http://www.w3.org/1999/xlink" x="0" y="0" width="680" height="103" viewBox="0, 0, 680, 103">
  <g id="Layer_1">
    <path d="M432.417,97.471 L421.792,92.034 L376.496,68.854 L356.86,58.806 L376.496,48.758 L421.792,25.578 L432.417,20.14 L432.417,43.331 L680,43.331 L680,73.187 L432.417,73.187 L432.417,97.471 z" fill="#911515"/>
    <path d="M84.907,4.127 L0.608,4.127 L0.608,31.846 L6.18,31.703 L6.466,24.559 C16.277,17.51 24.421,12.319 30.899,8.985 L30.899,94.713 L19.611,94.856 L19.611,99.857 L65.904,99.857 L65.904,94.856 L54.617,94.713 L54.617,8.985 C61.094,12.319 69.238,17.51 79.049,24.559 L79.335,31.703 L84.907,31.846 z" fill="#911515"/>
    <path d="M89.194,5.413 L89.194,20.273 L107.482,17.558 L107.482,1.27 z M108.911,95.285 L109.34,36.847 L107.34,33.418 L81.478,41.419 L82.907,45.562 L88.337,44.419 L88.765,95.285 L83.479,95.713 L83.479,99.857 L114.198,99.857 L114.198,95.713 z" fill="#911515"/>
    <path d="M226.787,95.713 L221.644,95.285 L221.644,59.422 C221.644,50.373 219.572,43.705 215.428,39.419 C211.285,35.132 204.832,32.989 196.068,32.989 L183.352,51.278 C182.209,45.086 179.613,40.514 175.565,37.561 C171.517,34.608 165.825,33.132 158.491,33.132 L146.632,50.135 L141.631,34.132 L119.056,41.133 L120.485,45.42 L125.914,44.134 L126.343,95.285 L121.056,95.713 L121.056,99.857 L151.775,99.857 L151.775,95.713 L146.489,95.285 L147.06,56.564 L151.775,51.849 C155.586,51.944 158.562,53.135 160.705,55.421 C162.849,57.707 163.92,60.946 163.92,65.137 L163.92,95.285 L158.634,95.713 L158.634,99.857 L189.21,99.857 L189.21,95.713 L184.066,95.285 L184.066,59.422 L184.066,56.993 L189.353,51.706 C193.163,51.801 196.14,53.016 198.283,55.35 C200.426,57.683 201.498,60.946 201.498,65.137 L201.498,95.285 L196.211,95.713 L196.211,99.857 L226.787,99.857 z" fill="#911515"/>
    <path d="M283.868,42.49 C279.058,36.442 272.461,33.418 264.079,33.418 C260.65,33.418 256.983,33.894 253.077,34.846 C249.172,35.799 245.981,36.99 243.504,38.418 C239.885,42.229 236.908,46.991 234.574,52.706 C232.241,58.422 231.074,64.184 231.074,69.995 C231.074,79.806 233.622,87.593 238.718,93.356 C243.814,99.119 250.696,102 259.364,102 C265.746,102 271.771,100.214 277.438,96.642 C283.106,93.07 287.607,88.093 290.941,81.711 L288.369,79.425 C283.701,83.521 277.653,85.569 270.223,85.569 C264.889,85.569 260.602,84.092 257.364,81.14 C254.125,78.187 252.172,73.9 251.506,68.28 L290.941,66.994 C291.036,56.707 288.678,48.539 283.868,42.49 z M269.794,62.279 L251.22,63.851 L251.22,63.422 C251.22,58.755 251.958,54.207 253.435,49.777 C254.911,45.348 256.84,41.895 259.221,39.419 C262.555,40.18 265.127,42.514 266.937,46.42 C268.746,50.325 269.699,55.612 269.794,62.279 z" fill="#911515"/>
    <path d="M294.37,0.698 L294.37,29.417 L302.657,28.988 L303.8,-0.159 z" fill="#911515"/>
    <path d="M334.019,53.278 C331.971,51.182 330.947,48.849 330.947,46.277 C330.947,42.943 331.757,40.228 333.376,38.133 C338.901,42.705 343.949,47.896 348.521,53.707 L359.666,42.705 C357.38,40.038 354.403,37.823 350.736,36.061 C347.069,34.299 343.187,33.418 339.091,33.418 C333.757,33.418 328.994,34.418 324.803,36.418 C320.612,38.418 317.35,41.038 315.016,44.276 C312.682,47.515 311.515,50.897 311.515,54.421 C311.515,57.279 312.206,59.85 313.587,62.136 C314.968,64.423 316.659,66.375 318.659,67.995 C320.66,69.614 323.327,71.519 326.661,73.71 C330.756,76.472 333.781,78.83 335.733,80.782 C337.686,82.735 338.663,85.045 338.663,87.712 C338.663,89.331 338.115,90.974 337.019,92.641 C335.924,94.308 334.567,95.761 332.947,96.999 C328.947,92.427 325.041,86.569 321.231,79.425 L308.943,89.284 C311.039,92.999 314.301,96.047 318.731,98.428 C323.16,100.809 327.851,102 332.804,102 C337.948,102 342.52,101.024 346.521,99.071 C350.522,97.118 353.617,94.523 355.808,91.284 C357.999,88.045 359.094,84.569 359.094,80.854 C359.094,76.663 357.761,73.138 355.094,70.281 C352.427,67.423 348.521,64.232 343.378,60.708 C339.186,57.85 336.067,55.373 334.019,53.278 z M326.232,99.857 L326.375,99.857 z" fill="#911515"/>
    <path d="M461.754,7.413 C454.753,3.794 446.585,1.984 437.25,1.984 C430.677,1.984 424.462,3.294 418.604,5.913 C412.746,8.533 407.578,11.986 403.101,16.272 C398.72,21.606 395.338,27.75 392.957,34.703 C390.576,41.657 389.385,48.325 389.385,54.707 C389.385,64.899 391.314,73.519 395.172,80.568 C399.029,87.617 404.459,92.951 411.46,96.571 C418.461,100.19 426.581,102 435.821,102 C442.489,102 448.775,100.69 454.681,98.071 C460.587,95.451 465.826,91.998 470.398,87.712 C474.78,82.378 478.113,76.258 480.4,69.352 C482.686,62.446 483.829,55.754 483.829,49.277 C483.829,39.085 481.9,30.465 478.042,23.416 C474.184,16.367 468.755,11.033 461.754,7.413 z M419.104,71.424 C416.246,64.661 414.818,55.754 414.818,44.705 C414.818,40.895 415.151,35.704 415.818,29.131 C416.484,22.559 417.342,16.796 418.39,11.843 C427.534,12.224 435.059,14.033 440.965,17.272 C446.87,20.511 451.276,25.535 454.181,32.346 C457.086,39.157 458.539,48.134 458.539,59.279 C458.539,63.375 458.182,68.637 457.467,75.067 C456.753,81.497 455.824,87.093 454.681,91.856 C445.442,91.379 437.917,89.546 432.106,86.355 C426.296,83.164 421.962,78.187 419.104,71.424 z" fill="#FFFFFF"/>
    <path d="M556.412,35.561 L531.836,35.561 L531.836,40.133 L537.837,40.276 L526.121,84.283 L513.691,40.276 L519.692,40.133 L519.692,35.561 L485.829,35.561 L485.829,40.133 L489.972,40.276 L512.548,99.857 L526.978,99 L552.268,40.276 L556.412,40.133 z" fill="#FFFFFF"/>
    <path d="M610.921,42.49 C606.11,36.442 599.514,33.418 591.132,33.418 C587.703,33.418 584.035,33.894 580.13,34.846 C576.224,35.799 573.034,36.99 570.557,38.418 C566.937,42.229 563.961,46.991 561.627,52.706 C559.293,58.422 558.126,64.184 558.126,69.995 C558.126,79.806 560.674,87.593 565.77,93.356 C570.866,99.119 577.749,102 586.417,102 C592.799,102 598.823,100.214 604.491,96.642 C610.159,93.07 614.659,88.093 617.993,81.711 L615.421,79.425 C610.754,83.521 604.705,85.569 597.275,85.569 C591.941,85.569 587.655,84.092 584.416,81.14 C581.178,78.187 579.225,73.9 578.558,68.28 L617.993,66.994 C618.088,56.707 615.731,48.539 610.921,42.49 z M596.847,62.279 L578.272,63.851 L578.272,63.422 C578.272,58.755 579.011,54.207 580.487,49.777 C581.964,45.348 583.892,41.895 586.274,39.419 C589.608,40.18 592.179,42.514 593.989,46.42 C595.799,50.325 596.751,55.612 596.847,62.279 z" fill="#FFFFFF"/>
    <path d="M648.284,55.135 L651.141,51.563 C653.904,51.753 657.428,52.086 661.714,52.563 C666.001,53.04 669.525,53.564 672.288,54.135 L676.86,35.561 C673.335,34.132 669.573,33.418 665.572,33.418 C662.619,33.418 660.095,33.799 658,34.561 C654.285,38.085 650.856,43.038 647.712,49.42 L642.854,34.132 L620.279,41.133 L621.708,45.419 L627.137,44.134 L627.566,95.285 L622.28,95.713 L622.28,99.857 L660.428,99.857 L660.428,95.713 L647.712,95.285 z" fill="#FFFFFF"/>
  </g>
</svg>
